# xmcd CD database file
#
# Track frame offsets:
#	182
#	16237
#	33542
#	61655
#	82920
#	100425
#	125385
#	141595
#	162105
#	178342
#	195327
#	212895
#	230352
#	239462
#
# Disc length: 3289 seconds
#
# Revision: 0
# Processed by: cddbd v1.4PL0 Copyright (c) Steve Scherf et al.
# Submitted via: CDex 1.50Beta7
#
DISCID=bc0cd70e
DTITLE=Various Artist - Proud - an urban-pacific streetsoul compilation
DYEAR=1994
DGENRE=Rhythmic Soul
TTITLE0=sisters underground - in the neighbourhood
TTITLE1=Pacifican descendants - tuesday blues
TTITLE2=otara millioniaires club - we r the o.m.c.
TTITLE3=radio backstab&dj payback - bassed on a lost cause
TTITLE4=pacifican descendants - pass it over
TTITLE5=di-na-ve - dawn of the eve
TTITLE6=vocal five - one too many
TTITLE7=semi mc's - i don't need you
TTITLE8=sisters underground - ain't it true
TTITLE9=rhythm harmony - groove me
TTITLE10=semi mc's - trust me
TTITLE11=mc slam - prove me wrong
TTITLE12=puka puka - pacific beats
TTITLE13=vocal five - god defend new zealand
EXTD=YEAR: 1994
EXTT0=
EXTT1=
EXTT2=
EXTT3=
EXTT4=
EXTT5=
EXTT6=
EXTT7=
EXTT8=
EXTT9=
EXTT10=
EXTT11=
EXTT12=
EXTT13=
PLAYORDER=
